<?xml version="1.0" encoding="utf-8"?>
<!-- Generator: Adobe Illustrator 25.4.1, SVG Export Plug-In . SVG Version: 6.00 Build 0)  -->
<svg version="1.1" id="Слой_1" xmlns="http://www.w3.org/2000/svg" xmlns:xlink="http://www.w3.org/1999/xlink" x="0px" y="0px"
	 viewBox="0 0 512 512" style="enable-background:new 0 0 512 512;" xml:space="preserve">
<style type="text/css">
	.st0{fill-rule:evenodd;clip-rule:evenodd;fill:#FFFFFF;}
	.st1{fill:#FFFFFF;}
</style>
<path class="st0" d="M505,264.1v128c0,5.5-4.5,10-10,10h-30V462c0,27.6-22.4,50-50,50H57c-27.6,0-50-22.4-50-50v-88.9
	c0-5.5,4.5-10,10-10s10,4.5,10,10V462c0,16.5,13.5,30,30,30h358c16.5,0,30-13.5,30-30v-59.9H293c-40.8,0-74-33.2-74-74
	s33.2-74,74-74h152v-59.9c0-16.6-13.5-30-30-30H57c-16.5,0-30,13.4-30,30v88.9c0,5.5-4.5,10-10,10s-10-4.5-10-10v-88.9
	c0-27.6,22.4-50,50-50h5.7L203.9,2.9c1.9-1.8,4.4-2.9,7.1-2.9c2.6,0,5.2,1.1,7.1,2.9l30.4,30.5L279,2.9c3.9-3.9,10.2-3.9,14.1,0
	l149.7,149.8c13.4,8.9,22.2,24.2,22.2,41.5v59.9h30C500.5,254.1,505,258.6,505,264.1z M137.7,144.2l96.7-96.7L211,24.1L91,144.2
	H137.7z M406.1,144.2L286,24.1L166,144.2H406.1z M485.1,274.1h-192c-29.8,0-54,24.2-54,54s24.2,54,54,54h192V274.1z"/>
<path class="st0" d="M323,328.1c0,16.5-13.5,30-30,30s-30-13.5-30-30c0-16.6,13.5-30,30-30S323,311.5,323,328.1z M303,328.1
	c0-5.5-4.5-10-10-10s-10,4.5-10,10s4.5,10,10,10S303,333.6,303,328.1z"/>
<path class="st1" d="M9.9,335.1c-1.8-1.8-2.9-4.4-2.9-7c0-2.7,1.1-5.2,2.9-7.1c1.9-1.9,4.5-2.9,7.1-2.9s5.2,1,7.1,2.9
	c1.8,1.9,2.9,4.4,2.9,7.1c0,2.6-1.1,5.2-2.9,7c-1.9,1.9-4.5,3-7.1,3S11.8,337,9.9,335.1z"/>
</svg>
