<?xml version="1.0" encoding="utf-8"?>
<!-- Generator: Adobe Illustrator 25.4.1, SVG Export Plug-In . SVG Version: 6.00 Build 0)  -->
<svg version="1.1" id="Capa_1" xmlns="http://www.w3.org/2000/svg" xmlns:xlink="http://www.w3.org/1999/xlink" x="0px" y="0px"
	 viewBox="0 0 512 512" style="enable-background:new 0 0 512 512;" xml:space="preserve">
<style type="text/css">
	.st0{fill:#FFFFFF;}
</style>
<g>
	<g id="_x31__48_">
		<g>
			<path class="st0" d="M386.4,470.9H125.6c-5.5,0-10-4.5-10-10V215.7L78.8,245c-2.1,1.6-4.7,2.4-7.4,2.1c-2.6-0.3-5-1.6-6.7-3.7
				L2.2,164.7c-3.4-4.3-2.7-10.6,1.6-14.1l104.7-83.2c0.5-0.4,1-0.7,1.5-1c29.4-15.6,85.3-25.3,146-25.3s116.7,9.7,146,25.3
				c0.5,0.3,1,0.6,1.5,1l104.7,83.2c4.3,3.4,5,9.7,1.6,14.1l-62.6,78.7c-1.6,2.1-4.1,3.4-6.7,3.7c-2.6,0.3-5.3-0.5-7.4-2.1
				l-36.8-29.3v245.2C396.4,466.4,391.9,470.9,386.4,470.9L386.4,470.9z M135.6,450.9h240.8V195c0-3.8,2.2-7.3,5.7-9
				c3.5-1.7,7.6-1.2,10.6,1.2l45.2,35.9l50.1-63.1l-96.1-76.4C365,69.7,313.1,61.1,256,61.1s-109,8.6-135.9,22.6l-96.1,76.4
				l50.1,63.1l45.2-35.9c3-2.4,7.1-2.8,10.6-1.2c3.5,1.7,5.7,5.2,5.7,9L135.6,450.9L135.6,450.9z"/>
		</g>
		<g>
			<path class="st0" d="M125.6,205c-5,0-9.3-3.7-9.9-8.7L110,152c-0.7-5.5,3.2-10.5,8.6-11.2c5.5-0.7,10.5,3.2,11.2,8.6l5.7,44.3
				c0.7,5.5-3.2,10.5-8.6,11.2C126.5,205,126,205,125.6,205L125.6,205z"/>
		</g>
		<g>
			<path class="st0" d="M386.4,205c-0.4,0-0.9,0-1.3-0.1c-5.5-0.7-9.3-5.7-8.6-11.2l5.7-44.3c0.7-5.5,5.7-9.3,11.2-8.6
				c5.5,0.7,9.3,5.7,8.6,11.2l-5.7,44.3C395.7,201.3,391.4,205,386.4,205L386.4,205z"/>
		</g>
		<g>
			<path class="st0" d="M256,124.8c-43.7,0-77.9-22.9-77.9-52.1c0-8.5,3-16.8,8.7-24.2c1.6-2.1,4.1-3.5,6.8-3.8
				c19.8-2.3,40.9-3.5,62.5-3.5c21.6,0,42.7,1.2,62.5,3.5c2.7,0.3,5.1,1.7,6.8,3.8c5.7,7.4,8.6,15.7,8.6,24.2
				C333.9,101.9,299.7,124.8,256,124.8L256,124.8z M200.4,64c-1.5,2.8-2.3,5.8-2.3,8.7c0,10.3,9.5,17.8,15.2,21.3
				c11.3,7,26.4,10.8,42.8,10.8s31.5-3.8,42.8-10.8c5.7-3.5,15.2-10.9,15.2-21.3c0-2.9-0.8-5.8-2.3-8.7c-17.7-1.9-36.4-2.9-55.6-2.9
				C236.8,61.1,218.1,62.1,200.4,64z"/>
		</g>
	</g>
</g>
</svg>
